<svg version="1.1" id="Layer_1" xmlns="http://www.w3.org/2000/svg" xmlns:xlink="http://www.w3.org/1999/xlink" x="0px" y="0px"
	 width="100%" viewBox="0 0 512 512" enable-background="new 0 0 512 512" xml:space="preserve">
<path fill="#000000" opacity="1.000000" stroke="none" 
	d="
M443.000000,513.000000 
	C295.757477,513.000000 148.514938,513.000000 1.000000,513.000000 
	C1.000000,425.644836 1.000000,338.289398 1.339153,250.134201 
	C2.783172,254.189209 4.056015,259.012756 4.965104,263.903900 
	C10.104858,291.557343 20.899778,316.942078 36.066620,340.469482 
	C46.035458,355.933502 57.980900,369.761688 71.589989,382.257538 
	C84.304375,393.931885 98.033806,404.143860 113.067436,412.434875 
	C133.772171,423.853485 155.616684,432.238525 179.144272,436.219788 
	C192.803879,438.531219 206.379852,440.493347 220.687576,439.906006 
	C233.578629,438.983521 246.105087,438.544708 258.463928,436.869446 
	C276.927399,434.366669 294.528442,428.426788 311.453949,420.763336 
	C332.580017,411.197968 351.640228,398.353058 369.231567,383.029419 
	C374.642334,388.126465 379.743988,393.076935 384.909882,398.490417 
	C384.982758,415.275085 385.091339,431.597748 384.928101,447.917633 
	C384.888428,451.882019 386.159851,454.760437 388.947144,457.519684 
	C406.227295,474.626068 423.392853,491.848358 440.541351,509.087036 
	C441.601166,510.152374 442.191315,511.684875 443.000000,513.000000 
z"/>
<path fill="#000000" opacity="1.000000" stroke="none" 
	d="
M250.000000,1.000001 
	C337.612640,1.000000 425.225311,1.000000 513.000000,1.000000 
	C513.000000,148.021973 513.000000,295.044006 512.771729,442.866760 
	C511.195374,442.440430 509.795410,441.265228 508.506897,439.978455 
	C491.297455,422.792572 474.033173,405.660431 456.973572,388.326904 
	C454.049652,385.356049 450.736877,384.079987 446.951691,384.060181 
	C430.629791,383.974609 414.306763,384.100372 397.695801,383.975739 
	C392.565216,378.842682 387.723022,373.883057 383.030487,368.619629 
	C388.458252,361.851654 394.099030,355.647186 398.947174,348.875244 
	C414.128601,327.669861 425.559235,304.623688 432.349487,279.328156 
	C436.645172,263.325592 439.766907,247.150223 439.920105,230.563553 
	C440.016724,220.104385 440.143341,209.533203 438.804077,199.200531 
	C436.989899,185.203690 434.731262,171.125076 430.974274,157.548965 
	C423.559753,130.756241 411.496735,105.901657 393.129791,84.907433 
	C380.530823,70.506172 366.904663,56.756279 352.283173,44.442303 
	C338.123444,32.517181 321.433044,23.988554 304.140015,17.035530 
	C287.345062,10.282769 270.126678,5.083522 252.076675,2.918201 
	C251.318649,2.827267 250.689301,1.663806 250.000000,1.000001 
z"/>
<path fill="#FF5A5A" opacity="1.000000" stroke="none" 
	d="
M220.247986,439.836365 
	C206.379852,440.493347 192.803879,438.531219 179.144272,436.219788 
	C155.616684,432.238525 133.772171,423.853485 113.067436,412.434875 
	C98.033806,404.143860 84.304375,393.931885 71.589989,382.257538 
	C57.980900,369.761688 46.035458,355.933502 36.066620,340.469482 
	C20.899778,316.942078 10.104858,291.557343 4.965104,263.903900 
	C4.056015,259.012756 2.783172,254.189209 1.339153,249.667221 
	C1.000000,230.645767 1.000000,211.291550 1.358010,191.771667 
	C2.140687,190.761230 2.762407,189.960052 2.960300,189.065125 
	C5.688654,176.726624 7.451803,164.089203 11.236951,152.088165 
	C18.509390,129.030502 29.776482,107.805595 44.266159,88.396759 
	C55.735107,73.034172 68.917114,59.212193 84.116165,47.554688 
	C98.958389,36.170868 114.747475,26.237343 132.115250,18.910713 
	C150.292313,11.242692 168.943130,5.507486 188.535477,2.926350 
	C189.426117,2.809015 190.181580,1.665540 191.000000,1.000001 
	C200.354233,1.000000 209.708450,1.000000 219.579987,1.466691 
	C220.121033,19.849218 220.144791,37.765057 219.698837,55.780685 
	C208.317093,57.034691 197.195343,57.210835 186.526321,59.498402 
	C103.823433,77.230843 48.493618,152.338593 57.022552,236.816452 
	C62.882145,294.854889 93.039658,337.778015 143.921463,365.958344 
	C167.530380,379.033844 193.268982,384.598785 220.158325,385.635254 
	C220.194946,404.007202 220.221466,421.921783 220.247986,439.836365 
z"/>
<path fill="#FF0161" opacity="1.000000" stroke="none" 
	d="
M220.168549,55.680893 
	C220.144791,37.765057 220.121033,19.849218 220.048645,1.466691 
	C229.687561,1.000000 239.375122,1.000000 249.531342,1.000001 
	C250.689301,1.663806 251.318649,2.827267 252.076675,2.918201 
	C270.126678,5.083522 287.345062,10.282769 304.140015,17.035530 
	C321.433044,23.988554 338.123444,32.517181 352.283173,44.442303 
	C366.904663,56.756279 380.530823,70.506172 393.129791,84.907433 
	C411.496735,105.901657 423.559753,130.756241 430.974274,157.548965 
	C434.731262,171.125076 436.989899,185.203690 438.804077,199.200531 
	C440.143341,209.533203 440.016724,220.104385 439.920105,230.563553 
	C439.766907,247.150223 436.645172,263.325592 432.349487,279.328156 
	C425.559235,304.623688 414.128601,327.669861 398.947174,348.875244 
	C394.099030,355.647186 388.458252,361.851654 382.703735,368.567749 
	C369.261749,355.892853 356.296204,342.966003 343.575897,329.766907 
	C344.670288,328.467682 345.535278,327.453369 346.366272,326.411865 
	C386.361450,276.282684 396.159821,220.703735 373.735352,160.726700 
	C349.859497,96.867821 285.836090,54.101967 220.138504,55.929688 
	C220.203201,55.863186 220.168549,55.680893 220.168549,55.680893 
z"/>
<path fill="#000000" opacity="1.000000" stroke="none" 
	d="
M190.531342,1.000001 
	C190.181580,1.665540 189.426117,2.809015 188.535477,2.926350 
	C168.943130,5.507486 150.292313,11.242692 132.115250,18.910713 
	C114.747475,26.237343 98.958389,36.170868 84.116165,47.554688 
	C68.917114,59.212193 55.735107,73.034172 44.266159,88.396759 
	C29.776482,107.805595 18.509390,129.030502 11.236951,152.088165 
	C7.451803,164.089203 5.688654,176.726624 2.960300,189.065125 
	C2.762407,189.960052 2.140687,190.761230 1.358010,191.303009 
	C1.000000,127.739639 1.000000,64.479279 1.000000,1.000000 
	C64.020729,1.000000 127.041702,1.000000 190.531342,1.000001 
z"/>
<path fill="#00B6B6" opacity="1.000000" stroke="none" 
	d="
M397.984161,384.149200 
	C414.306763,384.100372 430.629791,383.974609 446.951691,384.060181 
	C450.736877,384.079987 454.049652,385.356049 456.973572,388.326904 
	C474.033173,405.660431 491.297455,422.792572 508.506897,439.978455 
	C509.795410,441.265228 511.195374,442.440430 512.771729,443.333740 
	C513.000000,446.692902 513.000000,450.385834 512.747559,454.201904 
	C508.839355,455.882629 505.293579,458.323669 501.502563,458.795837 
	C495.442291,459.550659 489.219208,458.998383 483.064972,458.998474 
	C475.146179,458.998566 467.227386,458.998474 458.999329,458.998474 
	C458.999329,465.933624 459.389008,472.258118 458.914764,478.517212 
	C458.040924,490.050690 462.159393,502.183746 455.000000,513.000000 
	C451.307098,513.000000 447.614166,513.000000 443.460632,513.000000 
	C442.191315,511.684875 441.601166,510.152374 440.541351,509.087036 
	C423.392853,491.848358 406.227295,474.626068 388.947144,457.519684 
	C386.159851,454.760437 384.888428,451.882019 384.928101,447.917633 
	C385.091339,431.597748 384.982758,415.275085 384.962219,398.067291 
	C385.168549,388.009003 387.106628,385.912201 396.215149,384.894531 
	C396.824951,384.826416 397.395416,384.405823 397.984161,384.149200 
z"/>
<path fill="#000000" opacity="1.000000" stroke="none" 
	d="
M455.468658,513.000000 
	C462.159393,502.183746 458.040924,490.050690 458.914764,478.517212 
	C459.389008,472.258118 458.999329,465.933624 458.999329,458.998474 
	C467.227386,458.998474 475.146179,458.998566 483.064972,458.998474 
	C489.219208,458.998383 495.442291,459.550659 501.502563,458.795837 
	C505.293579,458.323669 508.839355,455.882629 512.747559,454.662537 
	C513.000000,474.260132 513.000000,493.520264 513.000000,513.000000 
	C493.979675,513.000000 474.958496,513.000000 455.468658,513.000000 
z"/>
<path fill="#FF0161" opacity="1.000000" stroke="none" 
	d="
M220.687592,439.906006 
	C220.221466,421.921783 220.194946,404.007202 220.177048,385.552704 
	C220.185669,385.012787 220.041718,384.923615 220.501297,384.972076 
	C262.590515,384.849426 298.809570,370.547729 330.364502,343.435303 
	C342.720978,355.639130 354.776886,367.645874 366.785828,379.699371 
	C367.671173,380.588013 368.218170,381.813751 368.922455,382.882782 
	C351.640228,398.353058 332.580017,411.197968 311.453949,420.763336 
	C294.528442,428.426788 276.927399,434.366669 258.463928,436.869446 
	C246.105087,438.544708 233.578629,438.983521 220.687592,439.906006 
z"/>
<path fill="#2E3E73" opacity="1.000000" stroke="none" 
	d="
M369.231567,383.029419 
	C368.218170,381.813751 367.671173,380.588013 366.785828,379.699371 
	C354.776886,367.645874 342.720978,355.639130 330.213074,343.180237 
	C316.878265,329.934204 304.007019,317.128845 290.978546,304.060913 
	C277.898438,290.939819 264.975494,278.081329 251.906525,264.965027 
	C241.162994,254.162704 230.565491,243.618149 219.816650,232.774063 
	C218.394028,231.196808 217.119492,229.922272 215.851990,228.640808 
	C208.462418,221.169952 210.066345,214.358276 220.354004,211.107117 
	C223.486923,212.831360 226.720139,213.989639 228.973343,216.163651 
	C241.226746,227.986496 253.238464,240.059830 265.524750,252.351089 
	C278.629059,265.485199 291.541992,278.315155 304.635559,291.444763 
	C317.654358,304.509338 330.492523,317.274261 343.330658,330.039154 
	C356.296204,342.966003 369.261749,355.892853 382.554047,368.871582 
	C387.723022,373.883057 392.565216,378.842682 397.695801,383.975739 
	C397.395416,384.405823 396.824951,384.826416 396.215149,384.894531 
	C387.106628,385.912201 385.168549,388.009003 384.897949,397.604248 
	C379.743988,393.076935 374.642334,388.126465 369.231567,383.029419 
z"/>
<path fill="#F4F7F8" opacity="1.000000" stroke="none" 
	d="
M220.166962,385.095337 
	C193.268982,384.598785 167.530380,379.033844 143.921463,365.958344 
	C93.039658,337.778015 62.882145,294.854889 57.022552,236.816452 
	C48.493618,152.338593 103.823433,77.230843 186.526321,59.498402 
	C197.195343,57.210835 208.317093,57.034691 219.698837,55.780685 
	C220.168549,55.680893 220.203201,55.863186 220.129120,56.398346 
	C220.040756,74.813705 220.026474,92.693901 220.039642,110.680267 
	C220.067108,110.786430 220.037537,111.003746 219.576599,110.920868 
	C214.473434,111.159470 209.793869,111.209686 205.194534,111.842842 
	C127.504967,122.537697 85.558746,210.298660 126.739532,277.035187 
	C147.937836,311.388580 179.373825,329.253296 220.136734,329.940918 
	C220.154892,330.023102 220.036819,330.143158 220.035355,330.602844 
	C220.036499,349.016205 220.039108,366.969910 220.041718,384.923615 
	C220.041718,384.923615 220.185669,385.012787 220.166962,385.095337 
z"/>
<path fill="#D9E0E7" opacity="1.000000" stroke="none" 
	d="
M220.012192,110.574104 
	C220.026474,92.693901 220.040756,74.813705 220.064423,56.464848 
	C285.836090,54.101967 349.859497,96.867821 373.735352,160.726700 
	C396.159821,220.703735 386.361450,276.282684 346.366272,326.411865 
	C345.535278,327.453369 344.670288,328.467682 343.575897,329.766907 
	C330.492523,317.274261 317.654358,304.509338 304.856873,291.152039 
	C332.934479,254.309509 338.978668,214.622467 319.235809,173.292160 
	C299.694214,132.383270 265.503754,111.843018 220.012192,110.574104 
z"/>
<path fill="#D9E0E7" opacity="1.000000" stroke="none" 
	d="
M220.501297,384.972076 
	C220.039108,366.969910 220.036499,349.016205 220.489960,330.553619 
	C247.495728,330.075409 270.768250,321.163147 291.135742,304.323486 
	C304.007019,317.128845 316.878265,329.934204 329.900940,342.994629 
	C298.809570,370.547729 262.590515,384.849426 220.501297,384.972076 
z"/>
<path fill="#FF0161" opacity="1.000000" stroke="none" 
	d="
M220.039642,110.680267 
	C265.503754,111.843018 299.694214,132.383270 319.235809,173.292160 
	C338.978668,214.622467 332.934479,254.309509 304.676208,290.852356 
	C291.541992,278.315155 278.629059,265.485199 265.763062,252.058655 
	C286.259369,220.729355 272.491241,180.368927 238.045929,168.372421 
	C232.382385,166.399933 226.134033,166.106567 220.156281,164.565674 
	C220.116928,146.397369 220.077225,128.700562 220.037537,111.003746 
	C220.037537,111.003746 220.067108,110.786430 220.039642,110.680267 
z"/>
<path fill="#F4F7F8" opacity="1.000000" stroke="none" 
	d="
M220.001953,211.009979 
	C210.066345,214.358276 208.462418,221.169952 215.851990,228.640808 
	C217.119492,229.922272 218.394028,231.196808 219.820801,233.238052 
	C220.026108,247.699814 220.075928,261.398071 220.192352,275.182800 
	C220.258942,275.269318 220.218597,275.483917 219.777588,275.341492 
	C216.039917,274.821533 212.695374,274.681793 209.454132,274.029022 
	C181.546082,268.408295 162.899673,242.374908 166.080200,213.602051 
	C169.048477,186.749344 192.970245,165.557037 220.000397,166.326920 
	C220.012131,181.539871 220.007034,196.274918 220.001953,211.009979 
z"/>
<path fill="#FE0261" opacity="1.000000" stroke="none" 
	d="
M290.978546,304.060913 
	C270.768250,321.163147 247.495728,330.075409 220.491425,330.093933 
	C220.036819,330.143158 220.154892,330.023102 220.151276,329.481262 
	C220.171310,311.120911 220.194962,293.302429 220.218597,275.483917 
	C220.218597,275.483917 220.258942,275.269318 220.630829,275.274414 
	C232.421478,275.227173 242.786011,271.920013 252.052567,265.222839 
	C264.975494,278.081329 277.898438,290.939819 290.978546,304.060913 
z"/>
<path fill="#D8DFE7" opacity="1.000000" stroke="none" 
	d="
M220.354004,211.107117 
	C220.007034,196.274918 220.012131,181.539871 220.050812,166.125549 
	C220.084381,165.446289 220.155960,165.037186 220.155960,165.037186 
	C226.134033,166.106567 232.382385,166.399933 238.045929,168.372421 
	C272.491241,180.368927 286.259369,220.729355 265.571716,251.754517 
	C253.238464,240.059830 241.226746,227.986496 228.973343,216.163651 
	C226.720139,213.989639 223.486923,212.831360 220.354004,211.107117 
z"/>
<path fill="#D7DEE6" opacity="1.000000" stroke="none" 
	d="
M251.906525,264.965027 
	C242.786011,271.920013 232.421478,275.227173 220.564240,275.187897 
	C220.075928,261.398071 220.026108,247.699814 219.972137,233.537582 
	C230.565491,243.618149 241.162994,254.162704 251.906525,264.965027 
z"/>
<path fill="#FF5B5B" opacity="1.000000" stroke="none" 
	d="
M220.156281,164.565674 
	C220.155960,165.037186 220.084381,165.446289 220.033981,165.647659 
	C192.970245,165.557037 169.048477,186.749344 166.080200,213.602051 
	C162.899673,242.374908 181.546082,268.408295 209.454132,274.029022 
	C212.695374,274.681793 216.039917,274.821533 219.777588,275.341492 
	C220.194962,293.302429 220.171310,311.120911 220.133118,329.399048 
	C179.373825,329.253296 147.937836,311.388580 126.739532,277.035187 
	C85.558746,210.298660 127.504967,122.537697 205.194534,111.842842 
	C209.793869,111.209686 214.473434,111.159470 219.576599,110.920868 
	C220.077225,128.700562 220.116928,146.397369 220.156281,164.565674 
z"/>
</svg>